<svg width="178" height="18" viewBox="0 0 178 18" fill="none" xmlns="http://www.w3.org/2000/svg">
<rect opacity="0.85" y="4.2998" width="2.5" height="9.13" rx="1.25" fill="#FFB18D"/>
<rect opacity="0.85" x="5" y="3.91016" width="2.5" height="9.91" rx="1.25" fill="#FFB18D"/>
<rect opacity="0.85" x="10" y="4.39502" width="2.5" height="8.94" rx="1.25" fill="#FFB18D"/>
<rect opacity="0.85" x="15" y="1.06982" width="2.5" height="15.59" rx="1.25" fill="#FFB18D"/>
<rect opacity="0.85" x="20" y="4.76514" width="2.5" height="8.2" rx="1.25" fill="#FFB18D"/>
<rect opacity="0.85" x="25" y="1.1001" width="2.5" height="15.53" rx="1.25" fill="#FFB18D"/>
<rect opacity="0.85" x="30" y="5.875" width="2.5" height="5.98" rx="1.25" fill="#FFB18D"/>
<rect opacity="0.85" x="35" y="5.02979" width="2.5" height="7.67" rx="1.25" fill="#FFB18D"/>
<rect opacity="0.85" x="40" y="1.83496" width="2.5" height="14.06" rx="1.25" fill="#FFB18D"/>
<rect opacity="0.85" x="45" y="4.00488" width="2.5" height="9.72" rx="1.25" fill="#FFB18D"/>
<rect opacity="0.85" x="50" y="1.25488" width="2.5" height="15.22" rx="1.25" fill="#FFB18D"/>
<rect opacity="0.85" x="55" y="3.27979" width="2.5" height="11.17" rx="1.25" fill="#FFB18D"/>
<rect opacity="0.85" x="60" y="3.95996" width="2.5" height="9.81" rx="1.25" fill="#FFB18D"/>
<rect opacity="0.85" x="65" y="5.49023" width="2.5" height="6.75" rx="1.25" fill="#FFB18D"/>
<rect opacity="0.85" x="70" y="1.56982" width="2.5" height="14.59" rx="1.25" fill="#FFB18D"/>
<rect opacity="0.85" x="75" y="4.8252" width="2.5" height="8.08" rx="1.25" fill="#FFB18D"/>
<rect opacity="0.85" x="80" y="0.410156" width="2.5" height="16.91" rx="1.25" fill="#FFB18D"/>
<rect opacity="0.85" x="85" y="6.54492" width="2.5" height="4.64" rx="1.25" fill="#FFB18D"/>
<rect opacity="0.85" x="90" y="4.28516" width="2.5" height="9.16" rx="1.25" fill="#FFB18D"/>
<rect opacity="0.85" x="95" y="2.89502" width="2.5" height="11.94" rx="1.25" fill="#FFB18D"/>
<rect opacity="0.85" x="100" y="4.0752" width="2.5" height="9.58" rx="1.25" fill="#FFB18D"/>
<rect opacity="0.85" x="105" y="1.12988" width="2.5" height="15.47" rx="1.25" fill="#FFB18D"/>
<rect opacity="0.85" x="110" y="2.47998" width="2.5" height="12.77" rx="1.25" fill="#FFB18D"/>
<rect opacity="0.85" x="115" y="3.91016" width="2.5" height="9.91" rx="1.25" fill="#FFB18D"/>
<rect opacity="0.85" x="120" y="6.52979" width="2.5" height="4.67" rx="1.25" fill="#FFB18D"/>
<rect opacity="0.85" x="125" y="2.20996" width="2.5" height="13.31" rx="1.25" fill="#FFB18D"/>
<rect opacity="0.85" x="130" y="5" width="2.5" height="7.73" rx="1.25" fill="#FFB18D"/>
<rect opacity="0.85" x="135" width="2.5" height="17.73" rx="1.25" fill="#FFB18D"/>
<rect opacity="0.85" x="140" y="6.1748" width="2.5" height="5.38" rx="1.25" fill="#FFB18D"/>
<rect opacity="0.85" x="145" y="3.46484" width="2.5" height="10.8" rx="1.25" fill="#FFB18D"/>
<rect opacity="0.85" x="150" y="4.08984" width="2.5" height="9.55" rx="1.25" fill="#FFB18D"/>
<rect opacity="0.85" x="155" y="4.15479" width="2.5" height="9.42" rx="1.25" fill="#FFB18D"/>
<rect opacity="0.85" x="160" y="1.25" width="2.5" height="15.23" rx="1.25" fill="#FFB18D"/>
<rect opacity="0.85" x="165" y="1.9248" width="2.5" height="13.88" rx="1.25" fill="#FFB18D"/>
<rect opacity="0.85" x="170" y="3.79492" width="2.5" height="10.14" rx="1.25" fill="#FFB18D"/>
<rect opacity="0.85" x="175" y="5.24023" width="2.5" height="7.25" rx="1.25" fill="#FFB18D"/>
</svg>
