<svg width="193" height="48" viewBox="0 0 193 48" fill="none" xmlns="http://www.w3.org/2000/svg">
<path d="M32.9162 23.9196L17.0121 23.84C16.2209 27.7134 18.1522 35.8809 32.2079 37.5711V47.0231C6.71361 46.2761 0.182923 32.4759 0.104261 25.6692C0.0255765 18.0847 -0.0845613 4.2241 0.104261 2.44988C0.293085 0.676492 2.14953 0.0779231 3.05457 0H32.9162V23.9196ZM21.1132 8.26077C19.2883 8.261 17.8099 9.72262 17.8096 11.5267C17.8096 13.331 19.2882 14.7941 21.1132 14.7943C22.9384 14.7943 24.4185 13.3311 24.4185 11.5267C24.4183 9.72248 22.9383 8.26077 21.1132 8.26077Z" fill="#21CE83"/>
<path d="M180.911 39.1217C178.487 39.1217 176.403 38.6258 174.659 37.6339C172.926 36.632 171.588 35.2393 170.647 33.4559C169.715 31.6625 169.249 29.5835 169.249 27.219C169.249 24.8445 169.715 22.7655 170.647 20.9821C171.588 19.1887 172.926 17.796 174.659 16.8041C176.403 15.8022 178.487 15.3013 180.911 15.3013C183.336 15.3013 185.415 15.8022 187.148 16.8041C188.892 17.796 190.229 19.1887 191.161 20.9821C192.103 22.7655 192.574 24.8445 192.574 27.219C192.574 29.5835 192.103 31.6625 191.161 33.4559C190.229 35.2393 188.892 36.632 187.148 37.6339C185.415 38.6258 183.336 39.1217 180.911 39.1217ZM180.956 33.5762C181.838 33.5762 182.584 33.3056 183.196 32.7646C183.807 32.2236 184.273 31.4721 184.593 30.5103C184.924 29.5485 185.089 28.4363 185.089 27.1739C185.089 25.8915 184.924 24.7693 184.593 23.8075C184.273 22.8457 183.807 22.0942 183.196 21.5532C182.584 21.0122 181.838 20.7417 180.956 20.7417C180.045 20.7417 179.273 21.0122 178.642 21.5532C178.021 22.0942 177.545 22.8457 177.214 23.8075C176.894 24.7693 176.733 25.8915 176.733 27.1739C176.733 28.4363 176.894 29.5485 177.214 30.5103C177.545 31.4721 178.021 32.2236 178.642 32.7646C179.273 33.3056 180.045 33.5762 180.956 33.5762Z" fill="#21CE83"/>
<path d="M141.481 13.9444V7.90283H167.496V13.9444H158.163V38.6816H150.829V13.9444H141.481Z" fill="#21CE83"/>
<path d="M124.757 23.8633V7.90283H117.408V38.6816H124.757V31.7518L126.245 29.9512L131.746 38.6816H140.237L131.709 25.6587L139.906 15.5975H131.58L125.088 23.8633H124.757Z" fill="#21CE83"/>
<path d="M110.377 7.90283V38.6816H103.028V7.90283H110.377Z" fill="#21CE83"/>
<path d="M82.3878 39.0767C80.915 39.0767 79.6075 38.8312 78.4653 38.3402C77.3332 37.8393 76.4365 37.0879 75.7752 36.0859C75.124 35.074 74.7983 33.8066 74.7983 32.2837C74.7983 31.0012 75.0238 29.9192 75.4746 29.0375C75.9255 28.1558 76.5467 27.4394 77.3382 26.8884C78.1297 26.3373 79.0414 25.9215 80.0734 25.641C81.1054 25.3505 82.2075 25.1551 83.3797 25.0549C84.6922 24.9347 85.7492 24.8094 86.5508 24.6792C87.3523 24.5389 87.9334 24.3435 88.2941 24.0931C88.6648 23.8326 88.8502 23.4669 88.8502 22.996V22.9208C88.8502 22.1493 88.5847 21.5532 88.0536 21.1324C87.5226 20.7116 86.8063 20.5012 85.9045 20.5012C84.9327 20.5012 84.1512 20.7116 83.5601 21.1324C82.9689 21.5532 82.5932 22.1343 82.4329 22.8757L75.655 22.6353C75.8554 21.2326 76.3713 19.9802 77.2029 18.8781C78.0445 17.766 79.1967 16.8943 80.6595 16.2631C82.1323 15.6219 83.9007 15.3013 85.9647 15.3013C87.4375 15.3013 88.7951 15.4766 90.0374 15.8273C91.2798 16.1679 92.3619 16.6689 93.2836 17.3301C94.2054 17.9814 94.9167 18.7829 95.4177 19.7347C95.9287 20.6865 96.1842 21.7736 96.1842 22.996V38.6859H89.271V35.4698H89.0906C88.6798 36.2513 88.1538 36.9125 87.5126 37.4536C86.8814 37.9946 86.135 38.4004 85.2733 38.6709C84.4217 38.9414 83.4599 39.0767 82.3878 39.0767ZM84.6572 34.2675C85.4487 34.2675 86.16 34.1072 86.7912 33.7866C87.4325 33.4659 87.9434 33.0251 88.3242 32.464C88.7049 31.8929 88.8953 31.2317 88.8953 30.4802V28.2861C88.6849 28.3963 88.4294 28.4965 88.1288 28.5866C87.8382 28.6768 87.5176 28.762 87.167 28.8421C86.8163 28.9223 86.4556 28.9924 86.0849 29.0525C85.7142 29.1126 85.3585 29.1677 85.0178 29.2178C84.3265 29.328 83.7354 29.4984 83.2445 29.7288C82.7635 29.9593 82.3928 30.2598 82.1323 30.6305C81.8819 30.9912 81.7566 31.422 81.7566 31.923C81.7566 32.6845 82.0271 33.2656 82.5682 33.6663C83.1192 34.0671 83.8156 34.2675 84.6572 34.2675Z" fill="#21CE83"/>
<path d="M47.0234 13.9444V7.90283H73.0381V13.9444H63.7053V38.6816H56.3713V13.9444H47.0234Z" fill="#21CE83"/>
</svg>
