<svg width="16" height="16" viewBox="0 0 16 16" fill="none" xmlns="http://www.w3.org/2000/svg">
<path d="M13.4751 0.787598H2.1001C1.37522 0.787598 0.787598 1.37522 0.787598 2.1001V3.8501C0.787598 4.57497 1.37522 5.1626 2.1001 5.1626H13.4751C14.2 5.1626 14.7876 4.57497 14.7876 3.8501V2.1001C14.7876 1.37522 14.2 0.787598 13.4751 0.787598Z" stroke="#0C8F55" stroke-width="1.575" stroke-linecap="round" stroke-linejoin="round"/>
<path d="M2.5376 5.1626V13.4751C2.5376 13.8232 2.67588 14.157 2.92202 14.4032C3.16816 14.6493 3.502 14.7876 3.8501 14.7876H11.7251C12.0732 14.7876 12.407 14.6493 12.6532 14.4032C12.8993 14.157 13.0376 13.8232 13.0376 13.4751V5.1626" stroke="#0C8F55" stroke-width="1.575" stroke-linecap="round" stroke-linejoin="round"/>
<path d="M6.0376 8.6626H9.5376" stroke="#0C8F55" stroke-width="1.575" stroke-linecap="round" stroke-linejoin="round"/>
</svg>
